<svg id="Layer_1" data-name="Layer 1" xmlns="http://www.w3.org/2000/svg" viewBox="0 0 265.07 33.79"><defs><style>.cls-1{fill:#f03000}</style></defs><path class="cls-1" d="M17.81 7.45a8.93 8.93 0 00-8.95 9.28c0 5.33 3.86 9.38 9 9.38A12.24 12.24 0 0026 22.25l5 5.41a19.75 19.75 0 01-13.72 6.13C7.4 33.79 0 26.53 0 16.82 0 7.3 7.59.14 17.67.14A19 19 0 0131 5.8l-5 6a11.21 11.21 0 00-8.19-4.35zM60.81.38v6.88H43.37v6.17h15.74v6.88H43.37v6.22h17.91v6.88H34.75V.38zM78.69 7c-2.07 0-3.44.76-3.44 2.26 0 5.47 17.39 2.36 17.39 14.24 0 6.74-5.94 10.18-13.29 10.18a24.84 24.84 0 01-15.22-5.28l3.34-6.74c3.4 2.92 8.53 5 12 5 2.55 0 4.15-.95 4.15-2.69 0-5.61-17.39-2.22-17.39-13.9C66.2 3.91 71.43 0 79.4 0a25.37 25.37 0 0113.19 3.72l-3.25 6.84C85.85 8.58 81.42 7 78.69 7zM122.49.38v7.11h-9.9v25.92H104V7.49h-9.84V.38zM157.94 16.87c0 9.66-7.63 16.92-17.86 16.92s-17.86-7.26-17.86-16.92S129.85.14 140.08.14s17.86 7.16 17.86 16.73zm-26.86.05a9.32 9.32 0 009.09 9.52c5 0 8.91-4.15 8.91-9.52s-4-9.43-8.91-9.43a9.21 9.21 0 00-9.09 9.43zM167.77.38L176 24.27 184.31.38h8.86l-12.91 33h-9l-12.78-33zM217.74 33.41l-8.58-12.77-4.24 4.72v8h-8.62V.38h8.62v13.85L217.31.38h10L215.05 14l13 19.37zM253.62 27.57h-14.28L237 33.41h-8.86l14.19-33h8.86l13.85 33h-9.19zM251.08 21l-4.53-11.81L241.93 21z"/></svg>